<?xml version="1.0" encoding="iso-8859-1"?>
<!-- Generator: Adobe Illustrator 23.1.0, SVG Export Plug-In . SVG Version: 6.00 Build 0)  -->
<svg version="1.1" xmlns="http://www.w3.org/2000/svg" xmlns:xlink="http://www.w3.org/1999/xlink" x="0px" y="0px"
	 width="15px" height="15px" viewBox="0 0 15 15" style="enable-background:new 0 0 15 15;" xml:space="preserve">
<path id="a" d="M8.21,7.5l4.65-4.65c0.2-0.2,0.2-0.51,0-0.71s-0.51-0.2-0.71,0L7.5,6.79L2.85,2.15c-0.2-0.2-0.51-0.2-0.71,0
	s-0.2,0.51,0,0.71L6.79,7.5l-4.65,4.65c-0.2,0.2-0.2,0.51,0,0.71C2.24,12.95,2.37,13,2.5,13s0.26-0.05,0.35-0.15L7.5,8.21l4.65,4.65
	c0.1,0.1,0.23,0.15,0.35,0.15s0.26-0.05,0.35-0.15c0.2-0.2,0.2-0.51,0-0.71L8.21,7.5z"/>
</svg>
