<?xml version="1.0" encoding="iso-8859-1"?>
<!-- Generator: Adobe Illustrator 23.1.0, SVG Export Plug-In . SVG Version: 6.00 Build 0)  -->
<svg version="1.1" xmlns="http://www.w3.org/2000/svg" xmlns:xlink="http://www.w3.org/1999/xlink" x="0px" y="0px"
	 width="15px" height="15px" viewBox="0 0 15 15" style="enable-background:new 0 0 15 15;" xml:space="preserve">
<path d="M0,3.5v-3c0-0.07,0.01-0.13,0.04-0.19c0.05-0.12,0.15-0.22,0.27-0.27C0.37,0.01,0.43,0,0.5,0h3C3.78,0,4,0.22,4,0.5
	S3.78,1,3.5,1H1.71l4.15,4.15c0.2,0.2,0.2,0.51,0,0.71C5.76,5.95,5.63,6,5.5,6S5.24,5.95,5.15,5.85L1,1.71V3.5C1,3.78,0.78,4,0.5,4
	S0,3.78,0,3.5z M14.5,11c-0.28,0-0.5,0.22-0.5,0.5v1.79L9.85,9.15c-0.2-0.2-0.51-0.2-0.71,0s-0.2,0.51,0,0.71L13.29,14H11.5
	c-0.28,0-0.5,0.22-0.5,0.5s0.22,0.5,0.5,0.5h3c0.07,0,0.13-0.01,0.19-0.04c0.12-0.05,0.22-0.15,0.27-0.27
	C14.99,14.63,15,14.57,15,14.5v-3C15,11.22,14.78,11,14.5,11z M14.96,0.31c-0.05-0.12-0.15-0.22-0.27-0.27
	C14.63,0.01,14.57,0,14.5,0h-3C11.22,0,11,0.22,11,0.5S11.22,1,11.5,1h1.79L1,13.29V11.5C1,11.22,0.78,11,0.5,11S0,11.22,0,11.5v3
	c0,0.07,0.01,0.13,0.04,0.19c0.05,0.12,0.15,0.22,0.27,0.27C0.37,14.99,0.43,15,0.5,15h3C3.78,15,4,14.78,4,14.5S3.78,14,3.5,14
	H1.71L14,1.71V3.5C14,3.78,14.22,4,14.5,4S15,3.78,15,3.5v-3C15,0.43,14.99,0.37,14.96,0.31z"/>
</svg>
