<?xml version="1.0" encoding="iso-8859-1"?>
<!-- Generator: Adobe Illustrator 23.1.0, SVG Export Plug-In . SVG Version: 6.00 Build 0)  -->
<svg version="1.1" id="Layer_1" xmlns="http://www.w3.org/2000/svg" xmlns:xlink="http://www.w3.org/1999/xlink" x="0px" y="0px"
	 width="106px" height="23px" viewBox="0 0 106 23" style="enable-background:new 0 0 106 23;" xml:space="preserve">
<g>
	<path d="M57,11L43,0v23h5V10.68L62,23l0-23h-5L57,11z"/>
	<path d="M89.83,16.89c0.43,1.08,1.07,2.05,1.93,2.88c0.86,0.84,1.86,1.5,2.99,2c1.13,0.49,2.32,0.74,3.57,0.74
		c1.45,0,2.75-0.25,3.91-0.74c1.16-0.49,2.08-1.22,2.75-2.17c0.67-0.96,1.01-2.13,1.01-3.53c0-1.2-0.23-2.22-0.7-3.05
		c-0.47-0.83-1.1-1.51-1.89-2.05c-0.79-0.54-1.67-0.98-2.62-1.32c-0.82-0.3-1.59-0.58-2.3-0.86c-0.71-0.28-1.29-0.58-1.74-0.92
		c-0.45-0.33-0.67-0.74-0.67-1.21c0-0.53,0.2-0.96,0.6-1.27c0.4-0.32,0.95-0.47,1.66-0.47c0.8,0,1.51,0.22,2.12,0.65
		c0.62,0.43,1.14,1.03,1.57,1.8l3.72-2.13c-0.37-0.75-0.87-1.47-1.49-2.16c-0.63-0.69-1.42-1.26-2.37-1.71
		c-0.96-0.45-2.11-0.68-3.46-0.68c-1.45,0-2.72,0.25-3.84,0.74c-1.11,0.49-1.99,1.18-2.62,2.06C91.32,4.36,91,5.38,91,6.54
		c0,1.03,0.19,1.9,0.57,2.63c0.38,0.73,0.87,1.34,1.46,1.82c0.6,0.48,1.21,0.88,1.85,1.18c0.63,0.31,1.2,0.56,1.68,0.75
		c0.78,0.32,1.49,0.61,2.12,0.87c0.63,0.27,1.14,0.58,1.52,0.93c0.38,0.35,0.57,0.83,0.57,1.42c0,1.36-0.84,2.04-2.52,2.04
		c-1.07,0-1.99-0.31-2.75-0.93c-0.76-0.62-1.49-1.55-2.2-2.79L89.83,16.89z"/>
	<path d="M76.49,0c-6.3,0-11.41,5.15-11.41,11.5c0,6.35,5.11,11.5,11.41,11.5S87.9,17.85,87.9,11.5C87.9,5.15,82.79,0,76.49,0z
		 M76.49,18.06c-3.59,0-6.5-2.94-6.5-6.56c0-3.62,2.91-6.56,6.5-6.56c3.59,0,6.5,2.94,6.5,6.56C82.99,15.12,80.08,18.06,76.49,18.06
		z"/>
	<path d="M37.66,7.5l-8.76,5.95l-2.27-3.71l5.84-3.96c-0.94-0.53-2.02-0.85-3.17-0.85c-3.6,0-6.51,2.94-6.51,6.57
		s2.91,6.57,6.51,6.57c2.02,0,3.83-0.93,5.02-2.39l3.12,3.85C35.37,21.67,32.49,23,29.3,23C23,23,17.9,17.85,17.9,11.5S23,0,29.3,0
		c4.4,0,8.21,2.52,10.11,6.2L37.66,7.5z"/>
	<path d="M12.62,5.05c-0.4-0.08-0.81-0.12-1.23-0.12c-3.6,0-6.51,2.94-6.51,6.57s2.91,6.57,6.51,6.57c0.34,0,0.68-0.03,1.01-0.09
		l3.64,4.01C14.62,22.64,13.05,23,11.39,23C5.1,23,0,17.85,0,11.5S5.1,0,11.39,0c1.77,0,3.44,0.42,4.93,1.14L12.62,5.05z"/>
</g>
</svg>
