<?xml version="1.0" encoding="iso-8859-1"?>
<!-- Generator: Adobe Illustrator 23.1.0, SVG Export Plug-In . SVG Version: 6.00 Build 0)  -->
<svg version="1.1" xmlns="http://www.w3.org/2000/svg" xmlns:xlink="http://www.w3.org/1999/xlink" x="0px" y="0px"
	 width="15px" height="15px" viewBox="0 0 15 15" style="enable-background:new 0 0 15 15;" xml:space="preserve">
<path d="M14.89,5.19c0.1,0.12,0.13,0.27,0.1,0.42l-2,9C12.94,14.84,12.73,15,12.5,15h-10c-0.11,0-0.2-0.04-0.28-0.09L3.12,14h8.98
	l1.78-8H12.5C12.22,6,12,5.78,12,5.5S12.22,5,12.5,5h2C14.65,5,14.79,5.07,14.89,5.19z M6,5.5C6,5.78,6.22,6,6.5,6h0.38l1-1H6.5
	C6.22,5,6,5.22,6,5.5z M4.5,7C4.78,7,5,6.78,5,6.5v-3C5,2.12,6.12,1,7.5,1c1.19,0,2.18,0.83,2.43,1.95l0.79-0.79
	C10.2,0.89,8.95,0,7.5,0C5.57,0,4,1.57,4,3.5v3C4,6.78,4.22,7,4.5,7z M2.17,10.71L1.12,6H2.5C2.78,6,3,5.78,3,5.5S2.78,5,2.5,5h-2
	C0.35,5,0.21,5.07,0.11,5.19c-0.1,0.12-0.13,0.27-0.1,0.42l1.32,5.94L2.17,10.71z M11,6.5V6.12L10.22,6.9C10.3,6.96,10.39,7,10.5,7
	C10.78,7,11,6.78,11,6.5z M14.85,0.15c-0.2-0.2-0.51-0.2-0.71,0l-14,14c-0.2,0.2-0.2,0.51,0,0.71C0.24,14.95,0.37,15,0.5,15
	s0.26-0.05,0.35-0.15l14-14C15.05,0.66,15.05,0.34,14.85,0.15z"/>
</svg>
