<?xml version="1.0" encoding="iso-8859-1"?>
<!-- Generator: Adobe Illustrator 23.1.0, SVG Export Plug-In . SVG Version: 6.00 Build 0)  -->
<svg version="1.1" xmlns="http://www.w3.org/2000/svg" xmlns:xlink="http://www.w3.org/1999/xlink" x="0px" y="0px"
	 width="15px" height="15px" viewBox="0 0 15 15" style="enable-background:new 0 0 15 15;" xml:space="preserve">
<g>
	<path d="M6.5,9.97H4V1.5C4,1.22,3.78,1,3.5,1S3,1.22,3,1.5v8.47H0.5c-0.2,0-0.38,0.12-0.46,0.31S0,10.68,0.15,10.82l3,2.99
		c0.1,0.1,0.23,0.15,0.35,0.15c0.13,0,0.26-0.05,0.35-0.15l3-2.99c0.14-0.14,0.19-0.36,0.11-0.54C6.88,10.09,6.7,9.97,6.5,9.97z
		 M3.5,12.75l-1.79-1.79h3.59L3.5,12.75z"/>
	<path d="M14.85,4.14l-3-2.99c-0.2-0.19-0.51-0.19-0.71,0l-3,2.99C8,4.28,7.96,4.49,8.04,4.68C8.12,4.87,8.3,4.99,8.5,4.99H11v8.47
		c0,0.28,0.22,0.5,0.5,0.5s0.5-0.22,0.5-0.5V4.99h2.5c0.2,0,0.38-0.12,0.46-0.31C15.04,4.49,15,4.28,14.85,4.14z M9.71,3.99
		L11.5,2.2l1.79,1.79H9.71z"/>
</g>
</svg>
