<?xml version="1.0" encoding="iso-8859-1"?>
<!-- Generator: Adobe Illustrator 23.1.0, SVG Export Plug-In . SVG Version: 6.00 Build 0)  -->
<svg version="1.1" xmlns="http://www.w3.org/2000/svg" xmlns:xlink="http://www.w3.org/1999/xlink" x="0px" y="0px"
	 width="15px" height="15px" viewBox="0 0 15 15" style="enable-background:new 0 0 15 15;" xml:space="preserve">
<path d="M7.5,13c-0.13,0-0.26-0.05-0.35-0.15l-3-3c-0.2-0.2-0.2-0.51,0-0.71s0.51-0.2,0.71,0l2.65,2.65l2.65-2.65
	c0.2-0.2,0.51-0.2,0.71,0s0.2,0.51,0,0.71l-3,3C7.76,12.95,7.63,13,7.5,13z M10.85,5.85c0.2-0.2,0.2-0.51,0-0.71l-3-3
	c-0.2-0.2-0.51-0.2-0.71,0l-3,3c-0.2,0.2-0.2,0.51,0,0.71s0.51,0.2,0.71,0L7.5,3.21l2.65,2.65C10.24,5.95,10.37,6,10.5,6
	S10.76,5.95,10.85,5.85z"/>
</svg>
