<?xml version="1.0" encoding="iso-8859-1"?>
<!-- Generator: Adobe Illustrator 23.1.0, SVG Export Plug-In . SVG Version: 6.00 Build 0)  -->
<svg version="1.1" id="Layer_1" xmlns="http://www.w3.org/2000/svg" xmlns:xlink="http://www.w3.org/1999/xlink" x="0px" y="0px"
	 width="15px" height="15px" viewBox="0 0 15 15" style="enable-background:new 0 0 15 15;" xml:space="preserve">
<path d="M7.5,15C4.47,15,2,12.53,2,9.5c0-0.01,0-0.01,0-0.02c0.03-0.61,0.22-3.68,1.47-4.42c0.27-0.16,0.7-0.29,1.26-0.01
	c0.73,0.37,1.31,0.4,1.77,0.12C7.73,4.41,8,1.54,8,0.5c0-0.21,0.13-0.4,0.33-0.47c0.2-0.07,0.42-0.01,0.56,0.16
	C9.06,0.4,13,5.37,13,9.5C13,12.53,10.53,15,7.5,15z M3,9.51C3.01,11.99,5.02,14,7.5,14c2.48,0,4.5-2.02,4.5-4.5
	c0-2.69-1.95-5.93-3.09-7.59C8.75,3.28,8.29,5.24,7.02,6.02C6.25,6.5,5.33,6.47,4.28,5.95C4.09,5.85,4.01,5.9,3.97,5.92
	C3.4,6.26,3.06,8.26,3,9.51z M8.14,12c-0.12,0-0.24-0.02-0.34-0.03c-0.19-0.03-0.42-0.03-0.6,0C6.94,12,6.59,12.06,6.31,11.81
	C6.03,11.57,6,11.2,6,10.95C6,10.32,6.38,8,7.5,8S9,10.32,9,10.95c0,0.26-0.03,0.63-0.31,0.86C8.52,11.96,8.33,12,8.14,12z
	 M7.5,10.94c0.16,0,0.31,0.02,0.45,0.04c0.02,0,0.03,0,0.05,0.01c0-0.01,0-0.02,0-0.04c0-0.63-0.28-1.55-0.5-1.87
	C7.28,9.4,7,10.32,7,10.95c0,0.01,0,0.03,0,0.04c0.02,0,0.04,0,0.05-0.01C7.19,10.96,7.34,10.94,7.5,10.94z"/>
</svg>
