<svg xmlns="http://www.w3.org/2000/svg" style="display: none;"><symbol id="bottom" viewBox="0 0 60 60"><title>bottom</title><path d="M10,29.07c0.55,0,1-0.45,1-1c0-0.56-0.45-1-1-1c-0.55,0-1,0.44-1,1C9,28.62,9.45,29.07,10,29.07z"/><circle cx="10" cy="31.93" r="1"/><circle cx="10" cy="35.8" r="1"/><path d="M10,5.87c0.55,0,1-0.45,1-1c0-0.56-0.45-1-1-1c-0.55,0-1,0.44-1,1C9,5.42,9.45,5.87,10,5.87z"/><circle cx="10" cy="12.6" r="1"/><path d="M10,9.73c0.55,0,1-0.44,1-1c0-0.55-0.45-1-1-1c-0.55,0-1,0.45-1,1C9,9.29,9.45,9.73,10,9.73z"/><path d="M10,17.47c0.55,0,1-0.45,1-1c0-0.56-0.45-1-1-1c-0.55,0-1,0.44-1,1C9,17.02,9.45,17.47,10,17.47z"/><path d="M10,21.33c0.55,0,1-0.44,1-1c0-0.55-0.45-1-1-1c-0.55,0-1,0.45-1,1C9,20.89,9.45,21.33,10,21.33z"/><circle cx="10" cy="24.2" r="1"/><path d="M10,2c0.26,0,0.52-0.11,0.71-0.29C10.89,1.52,11,1.26,11,1c0-0.26-0.11-0.52-0.29-0.71c-0.38-0.37-1.04-0.37-1.42,0 C9.11,0.48,9,0.74,9,1c0,0.26,0.11,0.52,0.29,0.71C9.48,1.89,9.74,2,10,2z"/><circle cx="42" cy="1" r="1"/><circle cx="34" cy="1" r="1"/><circle cx="30" cy="1" r="1"/><circle cx="46" cy="1" r="1"/><circle cx="14" cy="1" r="1"/><circle cx="18" cy="1" r="1"/><circle cx="22" cy="1" r="1"/><circle cx="26" cy="1" r="1"/><circle cx="38" cy="1" r="1"/><path d="M50,2c0.26,0,0.52-0.11,0.71-0.29C50.89,1.52,51,1.26,51,1c0-0.26-0.11-0.52-0.29-0.71c-0.38-0.37-1.05-0.37-1.42,0 C49.11,0.48,49,0.74,49,1c0,0.26,0.11,0.52,0.29,0.71C49.48,1.89,49.74,2,50,2z"/><circle cx="50" cy="12.6" r="1"/><path d="M50,38.67c-0.293,0-0.55,0.129-0.733,0.33H10.733c-0.183-0.201-0.441-0.33-0.733-0.33c-0.293,0-0.55,0.129-0.733,0.33H9v21 h42V39h-0.267C50.55,38.799,50.292,38.67,50,38.67z"/><path d="M50,3.87c-0.55,0-1,0.44-1,1c0,0.55,0.45,1,1,1c0.55,0,1-0.45,1-1C51,4.31,50.55,3.87,50,3.87z"/><path d="M50,15.47c-0.55,0-1,0.44-1,1c0,0.55,0.45,1,1,1c0.55,0,1-0.45,1-1C51,15.91,50.55,15.47,50,15.47z"/><path d="M50,7.73c-0.55,0-1,0.45-1,1c0,0.56,0.45,1,1,1c0.55,0,1-0.44,1-1C51,8.18,50.55,7.73,50,7.73z"/><circle cx="50" cy="31.93" r="1"/><circle cx="50" cy="35.8" r="1"/><circle cx="50" cy="24.2" r="1"/><path d="M50,27.07c-0.55,0-1,0.44-1,1c0,0.55,0.45,1,1,1c0.55,0,1-0.45,1-1C51,27.51,50.55,27.07,50,27.07z"/><path d="M50,19.33c-0.55,0-1,0.45-1,1c0,0.56,0.45,1,1,1c0.55,0,1-0.44,1-1C51,19.78,50.55,19.33,50,19.33z"/></symbol><symbol id="middle" viewBox="0 0 60 60"><title>middle</title><path d="M49.29,58.29C49.11,58.48,49,58.74,49,59c0,0.26,0.11,0.52,0.29,0.71C49.48,59.89,49.74,60,50,60 c0.26,0,0.52-0.11,0.71-0.29C50.89,59.52,51,59.26,51,59c0-0.26-0.11-0.52-0.29-0.71C50.34,57.92,49.66,57.92,49.29,58.29z"/><circle cx="38" cy="59" r="1"/><circle cx="46" cy="59" r="1"/><circle cx="42" cy="59" r="1"/><circle cx="34" cy="59" r="1"/><circle cx="14" cy="59" r="1"/><circle cx="18" cy="59" r="1"/><circle cx="22" cy="59" r="1"/><circle cx="26" cy="59" r="1"/><circle cx="30" cy="59" r="1"/><path d="M9.29,58.29C9.11,58.48,9,58.74,9,59c0,0.26,0.11,0.52,0.29,0.71C9.48,59.89,9.74,60,10,60c0.26,0,0.52-0.11,0.71-0.29 C10.89,59.52,11,59.26,11,59c0-0.26-0.11-0.52-0.29-0.71C10.33,57.92,9.67,57.92,9.29,58.29z"/><path d="M10,54.13c-0.55,0-1,0.45-1,1c0,0.56,0.45,1,1,1c0.55,0,1-0.44,1-1C11,54.58,10.55,54.13,10,54.13z"/><path d="M10,50.27c-0.55,0-1,0.44-1,1c0,0.55,0.45,1,1,1c0.55,0,1-0.45,1-1C11,50.71,10.55,50.27,10,50.27z"/><path d="M10,42.53c-0.55,0-1,0.45-1,1c0,0.56,0.45,1,1,1c0.55,0,1-0.44,1-1C11,42.98,10.55,42.53,10,42.53z"/><circle cx="10" cy="47.4" r="1"/><path d="M10,9.73c0.55,0,1-0.44,1-1c0-0.55-0.45-1-1-1c-0.55,0-1,0.45-1,1C9,9.29,9.45,9.73,10,9.73z"/><path d="M10,17.47c0.55,0,1-0.45,1-1c0-0.56-0.45-1-1-1c-0.55,0-1,0.44-1,1C9,17.02,9.45,17.47,10,17.47z"/><circle cx="10" cy="12.6" r="1"/><path d="M10,5.87c0.55,0,1-0.45,1-1c0-0.56-0.45-1-1-1c-0.55,0-1,0.44-1,1C9,5.42,9.45,5.87,10,5.87z"/><path d="M10,2c0.26,0,0.52-0.11,0.71-0.29C10.89,1.52,11,1.26,11,1c0-0.26-0.11-0.52-0.29-0.71c-0.37-0.37-1.05-0.37-1.42,0 C9.11,0.48,9,0.74,9,1c0,0.26,0.11,0.52,0.29,0.71C9.48,1.89,9.74,2,10,2z"/><circle cx="26" cy="1" r="1"/><circle cx="14" cy="1" r="1"/><circle cx="22" cy="1" r="1"/><circle cx="18" cy="1" r="1"/><circle cx="30" cy="1" r="1"/><circle cx="42" cy="1" r="1"/><circle cx="34" cy="1" r="1"/><circle cx="46" cy="1" r="1"/><circle cx="38" cy="1" r="1"/><path d="M50,2c0.26,0,0.52-0.11,0.71-0.29C50.89,1.52,51,1.26,51,1c0-0.26-0.11-0.52-0.29-0.71c-0.37-0.37-1.05-0.37-1.42,0 C49.11,0.48,49,0.74,49,1c0,0.26,0.11,0.52,0.29,0.71C49.48,1.89,49.74,2,50,2z"/><path d="M50,15.47c-0.55,0-1,0.44-1,1c0,0.55,0.45,1,1,1c0.55,0,1-0.45,1-1C51,15.91,50.55,15.47,50,15.47z"/><path d="M50,3.87c-0.55,0-1,0.44-1,1c0,0.55,0.45,1,1,1c0.55,0,1-0.45,1-1C51,4.31,50.55,3.87,50,3.87z"/><path d="M50,19.33c-0.433,0-0.795,0.283-0.933,0.67H10.933c-0.138-0.387-0.5-0.67-0.933-0.67c-0.433,0-0.795,0.283-0.933,0.67H9v21 h42V20h-0.067C50.795,19.613,50.433,19.33,50,19.33z"/><circle cx="50" cy="12.6" r="1"/><path d="M50,7.73c-0.55,0-1,0.45-1,1c0,0.56,0.45,1,1,1c0.55,0,1-0.44,1-1C51,8.18,50.55,7.73,50,7.73z"/><path d="M50,50.27c-0.55,0-1,0.44-1,1c0,0.55,0.45,1,1,1c0.55,0,1-0.45,1-1C51,50.71,50.55,50.27,50,50.27z"/><path d="M50,54.13c-0.55,0-1,0.45-1,1c0,0.56,0.45,1,1,1c0.55,0,1-0.44,1-1C51,54.58,50.55,54.13,50,54.13z"/><circle cx="50" cy="47.4" r="1"/><path d="M50,42.53c-0.55,0-1,0.45-1,1c0,0.56,0.45,1,1,1c0.55,0,1-0.44,1-1C51,42.98,50.55,42.53,50,42.53z"/></symbol><symbol id="top" viewBox="0 0 60 60"><title>top</title><path d="M49.29,58.29C49.11,58.48,49,58.74,49,59c0,0.26,0.11,0.52,0.29,0.71C49.48,59.89,49.74,60,50,60 c0.26,0,0.52-0.11,0.71-0.29C50.89,59.52,51,59.26,51,59c0-0.26-0.11-0.52-0.29-0.71C50.33,57.92,49.67,57.92,49.29,58.29z"/><circle cx="38" cy="59" r="1"/><circle cx="34" cy="59" r="1"/><circle cx="42" cy="59" r="1"/><circle cx="46" cy="59" r="1"/><circle cx="14" cy="59" r="1"/><circle cx="30" cy="59" r="1"/><circle cx="18" cy="59" r="1"/><circle cx="26" cy="59" r="1"/><circle cx="22" cy="59" r="1"/><path d="M9.29,58.29C9.11,58.48,9,58.74,9,59c0,0.26,0.11,0.52,0.29,0.71C9.48,59.89,9.74,60,10,60c0.26,0,0.52-0.11,0.71-0.29 C10.89,59.52,11,59.26,11,59c0-0.26-0.11-0.52-0.29-0.71C10.33,57.92,9.67,57.92,9.29,58.29z"/><path d="M10,42.53c-0.55,0-1,0.45-1,1c0,0.56,0.45,1,1,1c0.55,0,1-0.44,1-1C11,42.98,10.55,42.53,10,42.53z"/><path d="M10,50.27c-0.55,0-1,0.44-1,1c0,0.55,0.45,1,1,1c0.55,0,1-0.45,1-1C11,50.71,10.55,50.27,10,50.27z"/><circle cx="10" cy="47.4" r="1"/><circle cx="10" cy="24.2" r="1"/><path d="M10,54.13c-0.55,0-1,0.45-1,1c0,0.56,0.45,1,1,1c0.55,0,1-0.44,1-1C11,54.58,10.55,54.13,10,54.13z"/><path d="M10,27.07c-0.55,0-1,0.44-1,1c0,0.55,0.45,1,1,1c0.55,0,1-0.45,1-1C11,27.51,10.55,27.07,10,27.07z"/><path d="M10,38.67c-0.55,0-1,0.44-1,1c0,0.55,0.45,1,1,1c0.55,0,1-0.45,1-1C11,39.11,10.55,38.67,10,38.67z"/><circle cx="10" cy="35.8" r="1"/><circle cx="10" cy="31.93" r="1"/><circle cx="50" cy="31.93" r="1"/><path d="M50,27.07c-0.55,0-1,0.44-1,1c0,0.55,0.45,1,1,1c0.55,0,1-0.45,1-1C51,27.51,50.55,27.07,50,27.07z"/><circle cx="50" cy="24.2" r="1"/><circle cx="50" cy="35.8" r="1"/><path d="M50,54.13c-0.55,0-1,0.45-1,1c0,0.56,0.45,1,1,1c0.55,0,1-0.44,1-1C51,54.58,50.55,54.13,50,54.13z"/><path d="M50,50.27c-0.55,0-1,0.44-1,1c0,0.55,0.45,1,1,1c0.55,0,1-0.45,1-1C51,50.71,50.55,50.27,50,50.27z"/><path d="M50,38.67c-0.55,0-1,0.44-1,1c0,0.55,0.45,1,1,1c0.55,0,1-0.45,1-1C51,39.11,50.55,38.67,50,38.67z"/><circle cx="50" cy="47.4" r="1"/><path d="M50,42.53c-0.55,0-1,0.45-1,1c0,0.56,0.45,1,1,1c0.55,0,1-0.44,1-1C51,42.98,50.55,42.53,50,42.53z"/><path d="M9,0v21h0.267C9.45,21.2,9.708,21.33,10,21.33c0.292,0,0.55-0.129,0.733-0.33h38.534c0.183,0.2,0.441,0.33,0.733,0.33 c0.292,0,0.55-0.129,0.733-0.33H51V0H9z"/></symbol><symbol id="left" viewBox="0 0 60 60"><title>left</title><circle cx="35.8" cy="10" r="1"/><path d="M39.67,9c-0.56,0-1,0.45-1,1c0,0.55,0.44,1,1,1c0.55,0,1-0.45,1-1C40.67,9.45,40.22,9,39.67,9z"/><path d="M43.53,9c-0.55,0-1,0.45-1,1c0,0.55,0.45,1,1,1c0.56,0,1-0.45,1-1C44.53,9.45,44.09,9,43.53,9z"/><path d="M55.13,9c-0.55,0-1,0.45-1,1c0,0.55,0.45,1,1,1c0.56,0,1-0.45,1-1C56.13,9.45,55.689,9,55.13,9z"/><circle cx="47.399" cy="10" r="1"/><circle cx="24.2" cy="10" r="1"/><path d="M21.33,10c0-0.292-0.129-0.55-0.33-0.733V9H0v42h21v-0.267c0.2-0.183,0.33-0.441,0.33-0.733c0-0.292-0.129-0.55-0.33-0.733 V10.733C21.2,10.55,21.33,10.292,21.33,10z"/><path d="M51.27,9c-0.56,0-1,0.45-1,1c0,0.55,0.44,1,1,1c0.55,0,1-0.45,1-1C52.27,9.45,51.819,9,51.27,9z"/><path d="M31.93,9c-0.55,0-1,0.45-1,1c0,0.55,0.45,1,1,1c0.56,0,1-0.45,1-1C32.93,9.45,32.49,9,31.93,9z"/><path d="M28.07,9c-0.56,0-1,0.45-1,1c0,0.55,0.44,1,1,1c0.55,0,1-0.45,1-1C29.07,9.45,28.62,9,28.07,9z"/><path d="M59,11c0.26,0,0.52-0.11,0.71-0.29C59.89,10.52,60,10.26,60,10c0-0.26-0.11-0.52-0.29-0.71c-0.37-0.37-1.05-0.37-1.42,0 C58.109,9.48,58,9.74,58,10c0,0.26,0.109,0.52,0.29,0.71C58.479,10.89,58.74,11,59,11z"/><circle cx="59" cy="42" r="1"/><circle cx="59" cy="26" r="1"/><circle cx="59" cy="46" r="1"/><circle cx="59" cy="38" r="1"/><circle cx="59" cy="34" r="1"/><circle cx="59" cy="14" r="1"/><circle cx="59" cy="18" r="1"/><circle cx="59" cy="30" r="1"/><circle cx="59" cy="22" r="1"/><path d="M58.29,49.29C58.109,49.48,58,49.74,58,50c0,0.27,0.109,0.52,0.29,0.71C58.479,50.89,58.74,51,59,51s0.52-0.11,0.71-0.29 C59.89,50.52,60,50.26,60,50c0-0.26-0.11-0.52-0.29-0.71C59.34,48.92,58.66,48.92,58.29,49.29z"/><path d="M28.07,49c-0.56,0-1,0.45-1,1c0,0.55,0.44,1,1,1c0.55,0,1-0.45,1-1C29.07,49.45,28.62,49,28.07,49z"/><circle cx="24.2" cy="50" r="1"/><path d="M43.53,49c-0.55,0-1,0.45-1,1c0,0.55,0.45,1,1,1c0.56,0,1-0.45,1-1C44.53,49.45,44.09,49,43.53,49z"/><circle cx="47.399" cy="50" r="1"/><path d="M55.13,49c-0.55,0-1,0.45-1,1c0,0.55,0.45,1,1,1c0.56,0,1-0.45,1-1C56.13,49.45,55.689,49,55.13,49z"/><path d="M51.27,49c-0.56,0-1,0.45-1,1c0,0.55,0.44,1,1,1c0.55,0,1-0.45,1-1C52.27,49.45,51.819,49,51.27,49z"/><path d="M39.67,49c-0.56,0-1,0.45-1,1c0,0.55,0.44,1,1,1c0.55,0,1-0.45,1-1C40.67,49.45,40.22,49,39.67,49z"/><circle cx="35.8" cy="50" r="1"/><path d="M31.93,49c-0.55,0-1,0.45-1,1c0,0.55,0.45,1,1,1c0.56,0,1-0.45,1-1C32.93,49.45,32.49,49,31.93,49z"/></symbol><symbol id="center" viewBox="0 0 60 60"><title>center</title><path d="M0.29,49.29C0.109,49.48,0,49.74,0,50c0,0.26,0.109,0.52,0.29,0.71C0.479,50.89,0.74,51,1,51s0.52-0.11,0.71-0.29 C1.89,50.52,2,50.26,2,50c0-0.26-0.11-0.52-0.29-0.71C1.34,48.92,0.66,48.92,0.29,49.29z"/><circle cx="1" cy="26" r="1"/><circle cx="1" cy="18" r="1"/><circle cx="1" cy="30" r="1"/><circle cx="1" cy="22" r="1"/><circle cx="1" cy="14" r="1"/><circle cx="1" cy="42" r="1"/><circle cx="1" cy="34" r="1"/><circle cx="1" cy="46" r="1"/><circle cx="1" cy="38" r="1"/><path d="M0.29,9.29C0.109,9.48,0,9.74,0,10c0,0.26,0.109,0.52,0.29,0.71C0.479,10.89,0.74,11,1,11s0.52-0.11,0.71-0.29 C1.89,10.52,2,10.26,2,10c0-0.26-0.11-0.52-0.29-0.71C1.34,8.92,0.66,8.92,0.29,9.29z"/><path d="M16.47,9c-0.56,0-1,0.45-1,1c0,0.55,0.44,1,1,1c0.55,0,1-0.45,1-1C17.47,9.45,17.02,9,16.47,9z"/><path d="M40.67,10c0-0.433-0.283-0.795-0.67-0.933V9H19v42h21v-0.067c0.387-0.138,0.67-0.5,0.67-0.933 c0-0.433-0.283-0.795-0.67-0.933V10.933C40.387,10.795,40.67,10.433,40.67,10z"/><path d="M4.87,9c-0.561,0-1,0.45-1,1c0,0.55,0.439,1,1,1c0.55,0,1-0.45,1-1C5.87,9.45,5.42,9,4.87,9z"/><circle cx="8.729" cy="10" r="1"/><path d="M51.27,9c-0.56,0-1,0.45-1,1c0,0.55,0.44,1,1,1c0.55,0,1-0.45,1-1C52.27,9.45,51.819,9,51.27,9z"/><circle cx="43.53" cy="10" r="1"/><circle cx="47.399" cy="10" r="1"/><circle cx="12.6" cy="10" r="1"/><circle cx="55.13" cy="10" r="1"/><path d="M59,11c0.26,0,0.52-0.11,0.71-0.29C59.899,10.52,60,10.26,60,10c0-0.26-0.101-0.52-0.29-0.71c-0.37-0.37-1.05-0.37-1.42,0 C58.109,9.48,58,9.74,58,10c0,0.26,0.109,0.52,0.29,0.71C58.479,10.89,58.74,11,59,11z"/><circle cx="59" cy="42" r="1"/><circle cx="59" cy="30" r="1"/><circle cx="59" cy="26" r="1"/><circle cx="59" cy="34" r="1"/><circle cx="59" cy="38" r="1"/><circle cx="59" cy="22" r="1"/><circle cx="59" cy="14" r="1"/><circle cx="59" cy="18" r="1"/><circle cx="59" cy="46" r="1"/><path d="M58.29,49.29C58.109,49.48,58,49.74,58,50c0,0.26,0.109,0.52,0.29,0.71C58.479,50.89,58.729,51,59,51 c0.26,0,0.52-0.11,0.71-0.29C59.899,50.52,60,50.26,60,50c0-0.26-0.101-0.52-0.29-0.71C59.33,48.92,58.66,48.92,58.29,49.29z"/><circle cx="8.729" cy="50" r="1"/><circle cx="43.53" cy="50" r="1"/><circle cx="12.6" cy="50" r="1"/><path d="M16.47,49c-0.56,0-1,0.45-1,1c0,0.55,0.44,1,1,1c0.55,0,1-0.45,1-1C17.47,49.45,17.02,49,16.47,49z"/><circle cx="47.399" cy="50" r="1"/><path d="M4.87,49c-0.561,0-1,0.45-1,1c0,0.55,0.439,1,1,1c0.55,0,1-0.45,1-1C5.87,49.45,5.42,49,4.87,49z"/><path d="M51.27,49c-0.56,0-1,0.45-1,1c0,0.55,0.44,1,1,1c0.55,0,1-0.45,1-1C52.27,49.45,51.819,49,51.27,49z"/><path d="M55.13,49c-0.55,0-1,0.45-1,1c0,0.55,0.45,1,1,1c0.56,0,1-0.45,1-1C56.13,49.45,55.689,49,55.13,49z"/></symbol><symbol id="right" viewBox="0 0 60 60"><title>right</title><path d="M0.29,49.29C0.11,49.48,0,49.73,0,50c0,0.26,0.11,0.52,0.29,0.71C0.48,50.89,0.74,51,1,51c0.26,0,0.52-0.11,0.71-0.29 C1.89,50.52,2,50.26,2,50c0-0.27-0.11-0.52-0.29-0.71C1.33,48.92,0.66,48.92,0.29,49.29z"/><circle cx="1" cy="14" r="1"/><circle cx="1" cy="34" r="1"/><circle cx="1" cy="26" r="1"/><circle cx="1" cy="38" r="1"/><circle cx="1" cy="30" r="1"/><circle cx="1" cy="22" r="1"/><circle cx="1" cy="46" r="1"/><circle cx="1" cy="42" r="1"/><circle cx="1" cy="18" r="1"/><path d="M0.29,9.29C0.11,9.48,0,9.74,0,10c0,0.27,0.11,0.52,0.29,0.71C0.48,10.89,0.74,11,1,11c0.26,0,0.52-0.11,0.71-0.29 C1.89,10.52,2,10.27,2,10c0-0.26-0.11-0.52-0.29-0.71C1.34,8.92,0.66,8.92,0.29,9.29z"/><circle cx="12.6" cy="10" r="1"/><path d="M4.87,9c-0.56,0-1,0.45-1,1c0,0.55,0.44,1,1,1c0.55,0,1-0.45,1-1C5.87,9.45,5.42,9,4.87,9z"/><path d="M8.73,9c-0.55,0-1,0.45-1,1c0,0.55,0.45,1,1,1c0.56,0,1-0.45,1-1C9.73,9.45,9.29,9,8.73,9z"/><path d="M28.07,9c-0.56,0-1,0.45-1,1c0,0.55,0.44,1,1,1c0.55,0,1-0.45,1-1C29.07,9.45,28.62,9,28.07,9z"/><path d="M16.47,9c-0.56,0-1,0.45-1,1c0,0.55,0.44,1,1,1c0.55,0,1-0.45,1-1C17.47,9.45,17.02,9,16.47,9z"/><circle cx="35.8" cy="10" r="1"/><path d="M31.93,9c-0.55,0-1,0.45-1,1c0,0.55,0.45,1,1,1c0.56,0,1-0.45,1-1C32.93,9.45,32.49,9,31.93,9z"/><circle cx="24.2" cy="10" r="1"/><circle cx="20.33" cy="10" r="1"/><circle cx="24.2" cy="50" r="1"/><circle cx="20.33" cy="50" r="1"/><path d="M31.93,49c-0.55,0-1,0.45-1,1c0,0.55,0.45,1,1,1c0.56,0,1-0.45,1-1C32.93,49.45,32.49,49,31.93,49z"/><path d="M28.07,49c-0.56,0-1,0.45-1,1c0,0.55,0.44,1,1,1c0.55,0,1-0.45,1-1C29.07,49.45,28.62,49,28.07,49z"/><circle cx="35.8" cy="50" r="1"/><path d="M16.47,49c-0.56,0-1,0.45-1,1c0,0.55,0.44,1,1,1c0.55,0,1-0.45,1-1C17.47,49.45,17.02,49,16.47,49z"/><path d="M4.87,49c-0.56,0-1,0.45-1,1c0,0.55,0.44,1,1,1c0.55,0,1-0.45,1-1C5.87,49.45,5.42,49,4.87,49z"/><path d="M8.73,49c-0.55,0-1,0.45-1,1c0,0.55,0.45,1,1,1c0.56,0,1-0.45,1-1C9.73,49.45,9.29,49,8.73,49z"/><circle cx="12.6" cy="50" r="1"/><path d="M39,9v0.267C38.799,9.45,38.67,9.707,38.67,10c0,0.292,0.129,0.55,0.33,0.733v38.533c-0.201,0.183-0.33,0.441-0.33,0.733 c0,0.292,0.129,0.55,0.33,0.733V51h21V9H39z"/></symbol></svg>