<?xml version="1.0" encoding="UTF-8" ?>
<!DOCTYPE svg PUBLIC "-//W3C//DTD SVG 1.1//EN" "http://www.w3.org/Graphics/SVG/1.1/DTD/svg11.dtd">
<svg width="32px" height="32px" viewBox="0 0 70 70" version="1.1" xmlns="http://www.w3.org/2000/svg">
<g id="#242424eb">
<path fill="#242424" opacity="0.92" d=" M 22.98 19.03 C 33.35 19.00 43.71 18.92 54.07 19.07 C 54.00 19.86 53.87 21.44 53.80 22.23 C 43.60 22.26 33.40 22.25 23.20 22.23 C 23.15 21.43 23.04 19.83 22.98 19.03 Z" />
<path fill="#242424" opacity="0.92" d=" M 23.11 31.40 C 31.30 31.44 39.48 31.36 47.66 31.45 C 47.66 32.49 47.66 33.52 47.66 34.56 C 39.48 34.64 31.31 34.54 23.14 34.62 C 23.12 33.54 23.11 32.47 23.11 31.40 Z" />
<path fill="#242424" opacity="0.92" d=" M 22.90 46.96 C 23.20 45.65 22.62 43.14 24.89 43.75 C 34.52 43.74 44.15 43.77 53.79 43.75 C 53.85 44.55 53.98 46.15 54.04 46.95 C 43.66 47.04 33.28 47.02 22.90 46.96 Z" />
</g>
</svg>
